<?xml version="1.0" encoding="UTF-8" standalone="no"?>
<svg
   version="1.1"
   width="946"
   height="289"
   id="svg32"
   sodipodi:docname="gzpsycholooglogo-zwart-draft.svg"
   inkscape:version="1.3.2 (091e20e, 2023-11-25, custom)"
   inkscape:export-filename="gzpsycholooglogo-zwart-draft.png"
   inkscape:export-xdpi="96"
   inkscape:export-ydpi="96"
   xmlns:inkscape="http://www.inkscape.org/namespaces/inkscape"
   xmlns:sodipodi="http://sodipodi.sourceforge.net/DTD/sodipodi-0.dtd"
   xmlns="http://www.w3.org/2000/svg"
   xmlns:svg="http://www.w3.org/2000/svg">
  <defs
     id="defs32" />
  <sodipodi:namedview
     id="namedview32"
     pagecolor="#ffffff"
     bordercolor="#000000"
     borderopacity="0.25"
     inkscape:showpageshadow="2"
     inkscape:pageopacity="0.0"
     inkscape:pagecheckerboard="0"
     inkscape:deskcolor="#d1d1d1"
     inkscape:zoom="1.0815893"
     inkscape:cx="513.59604"
     inkscape:cy="193.69644"
     inkscape:window-width="1920"
     inkscape:window-height="1129"
     inkscape:window-x="-8"
     inkscape:window-y="-8"
     inkscape:window-maximized="1"
     inkscape:current-layer="svg32" />
  <path
     d="M -1.225812,-0.0408604 14,0 V 42 H 61 V 0 H 75 V 92 H 61 V 46 H 14 V 92 H 0 c -1.8311808,-1.831181 -1.1264526,-4.38767 -1.1355286,-6.824829 l 0.00613,-2.534546 -0.00531,-2.65564 c -0.00442,-2.911681 -0.00148,-5.823303 0.00189,-8.734985 -6.73e-4,-2.013998 -0.00164,-4.027995 -0.0029,-6.041992 -0.00148,-4.226896 6.781e-4,-8.453771 0.00534,-12.680664 0.0057,-5.431149 0.00242,-10.862249 -0.00357,-16.293396 -0.00361,-4.160547 -0.00247,-8.321082 1.278e-4,-12.481629 6.694e-4,-2.003174 -1.595e-4,-4.006348 -0.00248,-6.009521 -0.00253,-2.794504 0.00131,-5.588926 0.0069,-8.383423 l -0.00613,-2.5345459 C -1.1959832,1.073402 -1.175553,1.4615758 -1.225812,-0.0408604 Z"
     fill="#141414"
     transform="translate(345,109)"
     id="path1"
     sodipodi:nodetypes="cccccccccccccccccccccccc"
     style="fill:#000000;fill-opacity:1" />
  <path
     d="M0 0 C11.34789868 8.63661276 16.51051841 18.77963879 18.46875 32.87890625 C19.75231627 44.85885812 16.88780228 57.33090854 9.46875 66.87890625 C1.63540236 75.93077463 -7.37520775 83.08022046 -19.67333984 84.04736328 C-35.78395756 84.84077718 -46.11219421 82.48111601 -58.7265625 72.06640625 C-67.58307772 63.98441517 -71.92436568 53.21408306 -72.78125 41.4453125 C-73.26444946 26.69262887 -69.29527878 15.00655733 -59.28125 4.19140625 C-43.02419088 -11.1407436 -18.27242039 -12.57541575 0 0 Z M-47.9296875 5.7890625 C-57.87716566 18.76930839 -57.48319468 36.3756631 -55.53125 51.87890625 C-53.92649139 60.97647163 -49.85646843 69.88721342 -42.21875 75.37890625 C-34.44478777 79.96022289 -26.32316761 80.95924732 -17.53125 78.87890625 C-10.00545905 75.84256408 -5.01206752 71.19838235 -1.53125 63.87890625 C1.10982217 57.46764299 2.01353483 51.52998099 2.21875 44.62890625 C2.26841919 43.24856201 2.26841919 43.24856201 2.3190918 41.84033203 C2.71926527 28.46913984 2.63580934 15.75384624 -6.21875 4.94140625 C-12.56976429 -1.54919077 -18.05037714 -3.32503095 -27.09375 -3.62109375 C-36.16712621 -3.34010008 -41.7720303 -0.86064493 -47.9296875 5.7890625 Z "
     fill="#111111"
     transform="translate(516.53125,117.12109375)"
     id="path2"
     style="fill:#000000;fill-opacity:1" />
  <path
     d="M0 0 C10.984308 8.38139141 16.15058739 18.36896077 18.47265625 31.88671875 C19.45740547 44.93464585 16.84125221 58.387148 8.20703125 68.5546875 C-1.57039646 78.70701658 -10.89566124 83.76964648 -25.11401367 84.29150391 C-38.053866 84.4715787 -47.79742975 81.71501909 -57.52734375 72.88671875 C-58.15382813 72.36335938 -58.7803125 71.84 -59.42578125 71.30078125 C-67.99613846 63.62862742 -71.96060558 52.67051335 -72.77734375 41.453125 C-73.26054321 26.70044137 -69.29137253 15.01436983 -59.27734375 4.19921875 C-43.01231022 -11.14045183 -18.28755578 -12.55131526 0 0 Z M-47.92578125 5.78125 C-56.62400774 17.21623555 -57.60102658 32.04256534 -56.52734375 45.88671875 C-55.01963984 56.74878998 -52.30841435 65.92469302 -44.52734375 73.88671875 C-36.96395634 79.12291003 -29.28228324 80.59958092 -20.1640625 79.48046875 C-12.37216969 77.72584992 -7.10628193 72.15840269 -2.52734375 65.88671875 C5.28928079 52.67931867 3.48442001 32.25713439 0.47265625 17.88671875 C-1.76677391 10.38068902 -6.06988672 4.09644947 -12.453125 -0.5 C-24.68575559 -7.06553619 -38.7861259 -4.00527593 -47.92578125 5.78125 Z "
     fill="#111111"
     transform="translate(803.52734375,117.11328125)"
     id="path3"
     style="fill:#000000;fill-opacity:1" />
  <path
     d="M 0,0 C 9.455811,7.226629 16.188951,16.499858 18.289062,28.472656 19.739173,42.996776 17.790681,54.818665 9.5351563,66.9375 l -2.0000001,3 -0.9020786,0.982351 -1.0979214,1.017649 c -12.8699881,10.961599 -24.5999122,13.02193 -41.0000002,12 -11.143753,-1.683691 -20.939859,-8.395454 -28,-17 C -71.447702,55.254254 -74.032627,41.6994 -72.003906,27.773437 -69.148228,14.771702 -62.097755,5.6343061 -51.277344,-1.8125 -35.399988,-11.451549 -15.167771,-10.475583 0,0 Z m -46.714844,5.0625 c -8.946376,10.753193 -10.788133,25.265719 -9.75,38.875 1.485211,12.946742 4.642872,23.435004 15,32 6.257714,4.266623 14.285407,4.697185 21.625,3.4375 7.736827,-2.103753 14.0274113,-6.782414 18.1562503,-13.652344 C 5.0687719,50.291769 4.3106991,29.766114 -0.46484375,13.9375 -3.4099974,6.9092923 -9.2007127,0.72664589 -16.257812,-2.234375 -28.262384,-5.3342156 -38.189374,-3.7435149 -46.714844,5.0625 Z"
     fill="#111111"
     transform="translate(690.46484,117.0625)"
     id="path4"
     sodipodi:nodetypes="ccccccccccccccccccc"
     style="fill:#000000;fill-opacity:1" />
  <path
     d="M0 0 C42.2791762 0 42.2791762 0 51.8828125 8.70703125 C57.42420934 14.85075384 58.53391833 20.45228867 58.3671875 28.640625 C57.68373141 34.89352117 55.58569604 39.74556751 50.8046875 43.9140625 C45.5139745 47.59835439 41.32643502 49.04929837 34.90234375 49.31640625 C33.93619141 49.35830078 32.97003906 49.40019531 31.97460938 49.44335938 C30.97236328 49.48267578 29.97011719 49.52199219 28.9375 49.5625 C27.93138672 49.60568359 26.92527344 49.64886719 25.88867188 49.69335938 C18.60230655 50 18.60230655 50 15 50 C14.67 63.86 14.34 77.72 14 92 C9.38 92 4.76 92 0 92 C0 61.64 0 31.28 0 0 Z M14 5 C14 18.2 14 31.4 14 45 C27.01265569 46.05566481 27.01265569 46.05566481 38 41 C43.20072305 34.38787128 43.2322749 28.25383189 42.4921875 20.203125 C41.79797389 15.68522693 40.93448986 13.5364365 38 10 C30.14971818 4.76110556 23.7405317 5 14 5 Z "
     fill="#151515"
     transform="translate(24,109)"
     id="path5"
     style="fill:#000000;fill-opacity:1" />
  <path
     d="M0 0 C22.44 0 44.88 0 68 0 C68 6.13402845 67.18761238 7.89812717 63.6875 12.375 C62.76143855 13.6134017 61.83701944 14.85303285 60.9140625 16.09375 C60.43227539 16.73441406 59.95048828 17.37507813 59.45410156 18.03515625 C57.07053861 21.25592767 54.81873198 24.56437451 52.5625 27.875 C51.63031734 29.23575176 50.69802516 30.59642851 49.765625 31.95703125 C49.30478516 32.63072754 48.84394531 33.30442383 48.36914062 33.99853516 C46.18681953 37.18873993 44.00063591 40.37628127 41.8125 43.5625 C41.37389648 44.2013916 40.93529297 44.8402832 40.48339844 45.49853516 C37.68015664 49.57535098 34.86042222 53.64035166 32.03125 57.69921875 C31.33410889 58.69945068 30.63696777 59.69968262 29.91870117 60.73022461 C28.55804716 62.68106841 27.19630696 64.63115528 25.83325195 66.58032227 C21.12495681 73.32941226 16.56736302 80.14895547 12 87 C30.15 87 48.3 87 67 87 C67.33 88.32 67.66 89.64 68 91 C67 92 67 92 64.10838318 92.12025452 C62.81376663 92.11803391 61.51915009 92.11581329 60.18530273 92.11352539 C59.11706772 92.11374443 59.11706772 92.11374443 58.0272522 92.1139679 C55.66266888 92.1132687 53.29816339 92.10547606 50.93359375 92.09765625 C49.29834537 92.09579209 47.66309643 92.09436818 46.02784729 92.09336853 C41.71565215 92.08954318 37.40349048 92.07971275 33.09130859 92.06866455 C28.69434054 92.0584508 24.29736711 92.05387099 19.90039062 92.04882812 C11.26691169 92.03809049 2.63346 92.02101387 -6 92 C-6.60049438 90.18739319 -6.60049438 90.18739319 -7 88 C-5.7478875 85.66516951 -4.48320015 83.6437674 -2.9609375 81.49609375 C-2.31241318 80.54957695 -2.31241318 80.54957695 -1.65078735 79.5839386 C-0.23723489 77.52676415 1.19365735 75.4823262 2.625 73.4375 C3.60275809 72.02133253 4.57931677 70.60433623 5.5546875 69.18652344 C7.48475747 66.38462591 9.42124166 63.58736857 11.36425781 60.79443359 C14.08846809 56.87739468 16.78278072 52.94049424 19.46899414 48.99731445 C22.51375253 44.52801115 25.5778714 40.07194175 28.63818359 35.61328125 C30.32206649 33.15938645 32.0047882 30.70469795 33.6875 28.25 C34.17412109 27.54198242 34.66074219 26.83396484 35.16210938 26.10449219 C40.18075772 18.78258338 45.07442462 11.38836307 50 4 C33.5 4 17 4 0 4 C0 2.68 0 1.36 0 0 Z "
     fill="#131313"
     transform="translate(225,11)"
     id="path6"
     style="fill:#000000;fill-opacity:1" />
  <path
     d="M 0,0 C 2.3108276,2.2099581 4.0794552,4.4224267 6,7 L 3,10 0.67577466,7.7688587 -1,6.4622827 -2.7304688,5.1640625 C -5,4 -5,4 -7.0507812,2.7109375 -14.481999,-1.6784864 -21.519003,-2.1228877 -30,-1 c -6.892569,2.0559964 -12.218758,5.8599267 -16,12 -7.007879,14.196026 -7.709723,34.598089 -2.976562,49.660156 3.283155,7.86644 7.545518,12.385814 14.601562,17.089844 7.367183,2.728586 15.038778,3.190539 22.398437,0.273437 C -7.8019935,75.861902 -4.5336272,73.600882 -3,69 c 0.1368924,-1.760197 0.2244736,-3.524464 0.28125,-5.289063 l 0.1132812,-3.101562 c 0.070567,-2.164054 0.1408777,-4.328117 0.2109375,-6.492188 l 0.1132813,-3.09375 0.091797,-2.846191 c 0.102775,-2.235031 0.1605603,-1.772749 0.1204243,-3.206139 C 0.11736584,44.898518 3.3750039,44.916262 5.5625,44.9375 L 9.1914063,44.964844 12,45 c 0.117189,3.353868 0.187576,6.707201 0.25,10.0625 l 0.101563,2.857422 C 12.455379,65.368764 11.107679,69.324772 6.2460937,75.074219 -4.2719844,84.456435 -17.322206,85.768185 -30.887695,85.174805 -41.985249,84.256422 -51.463481,78.071976 -58.875,70.0625 -68.036722,58.852864 -69.039336,46.022459 -68,32 -66.362566,20.88196 -60.569188,9.2712896 -51.746094,2.1914063 -36.17197,-9.2454694 -16.451575,-10.583847 0,0 Z"
     fill="#141414"
     transform="translate(911,116)"
     id="path7"
     sodipodi:nodetypes="cccccccccccccccccccccccccccccc"
     style="fill:#000000;fill-opacity:1" />
  <path
     d="M0 0 C3.264534 2.06307061 6.42547796 4.10127889 9 7 C9 8.32 9 9.64 9 11 C7.68 11.66 6.36 12.32 5 13 C4.6596875 12.54109375 4.319375 12.0821875 3.96875 11.609375 C-0.37992499 6.10413751 -4.80088237 3.25973529 -11.5 1.25 C-19.82001187 0.41799881 -27.39404048 0.86448765 -34.49609375 5.69921875 C-42.27634486 12.20192452 -45.43460952 19.13776193 -47 29 C-47.29353023 32.94174111 -47.33431106 36.86095877 -47.3125 40.8125 C-47.30686035 41.87549316 -47.3012207 42.93848633 -47.29541016 44.03369141 C-47.11928473 55.39465304 -45.63565177 66.06263629 -38 75 C-29.75796199 81.39311321 -22.29120403 82.91678229 -12 82 C-6.97283219 80.70051054 -3.83769781 79.00523737 -0.5 75 C1.50062837 70.99874326 2.1169429 67.67955826 2.31640625 63.234375 C2.35830078 62.34492187 2.40019531 61.45546875 2.44335938 60.5390625 C2.48267578 59.61867187 2.52199219 58.69828125 2.5625 57.75 C2.62727539 56.34621094 2.62727539 56.34621094 2.69335938 54.9140625 C2.79917939 52.60953778 2.90006917 50.30478761 3 48 C7.29 48 11.58 48 16 48 C16.13592625 51.33472392 16.23455198 54.66382467 16.3125 58 C16.35439453 58.93457031 16.39628906 59.86914062 16.43945312 60.83203125 C16.55726623 67.57094063 15.3520012 71.80590172 11 77 C3.12058732 85.09788068 -9.18219082 88.00662329 -20.1875 88.4375 C-33.50575135 87.74360791 -44.87186064 83.18736901 -54.109375 73.48046875 C-61.03887188 64.38908338 -64.1775357 55.01691138 -64.1875 43.6875 C-64.19974609 42.96626953 -64.21199219 42.24503906 -64.22460938 41.50195312 C-64.25888067 28.76445394 -58.88801732 16.24527963 -50.1171875 7.01953125 C-37.07319406 -4.97582742 -15.89071556 -8.81960427 0 0 Z "
     fill="#151515"
     transform="translate(192,15)"
     id="path8"
     style="fill:#000000;fill-opacity:1" />
  <path
     d="M 0.0612906,-0.75591742 C 6.5725431,-0.73679476 9.4192581,-0.8733439 17.081721,-0.65376641 27.883156,17.886276 33.351794,28.228149 46,49 52.707987,38.043622 59.086011,26.904205 65.414062,15.725586 c 0.670564,-1.18067 1.341136,-2.361334 2.011719,-3.541992 l 1.79419,-3.1701663 c 3.642131,-6.1657974 3.723852,-6.0023558 6.025191,-9.42203171 2.514513,0.033604 1.631531,-0.0549509 4.529026,0 C 69.47668,17.107301 59.091342,35.497845 48.863624,53.929264 48.530265,64.137777 48.796958,66.946684 48,92 H 34 l 0.130371,-3.047363 C 34.563523,65.696897 34.657656,74.160738 34.20783,54.714287 19.287817,31.313785 11.778065,19.497136 0.0612906,-0.75591742 Z"
     fill="#101010"
     transform="translate(164,109)"
     id="path9"
     sodipodi:nodetypes="cccccccccccccc"
     style="fill:#000000;fill-opacity:1" />
  <path
     d="M -0.53408908,0.60879933 C 1.5197213,2.673396 1.490672,3.1012634 2.828125,5.78125 L 0.67966129,7.2430543 -1.7932601,4.3043449 c -4.6553291,-4.98785261 -12.6074429,-7.2307932 -19.4528339,-7.7613762 -9.209474,-0.1891675 -14.702409,0.5908234 -21.675781,6.6132813 -11.011204,12.846404 -11.14646,28.448881 -10.25,44.625 1.263805,10.024762 5.020314,18.140317 13.0625,24.4375 7.214159,5.178261 14.267319,5.342816 22.9375,4.5625 5.99036,-1.601469 11.4716163,-3.498421 15.9245653,-7.728723 l 1.00000003,-2 L 2.828125,67.78125 C 2.4451158,70.284296 2.0779985,71.532 0.26171875,73.34375 -11.197034,81.595846 -20.997129,83.955469 -35.171875,82.78125 -46.60192,80.807084 -56.077751,75.317174 -63.109375,66.03125 -71.040604,53.409919 -72.4483,38.797932 -69.324219,24.324219 -66.216895,12.347027 -60.127056,2.8813504 -49.625,-3.8515625 c 16.26902,-9.0671295 34.200697,-6.1068862 49.09091092,4.46036183 z"
     fill="#171717"
     transform="translate(322.17187,118.21875)"
     id="path10"
     sodipodi:nodetypes="cccccccccccccccccc"
     style="fill:#000000;fill-opacity:1" />
  <path
     d="M0 0 C2.16916944 1.8997651 4.0544633 3.85990962 6 6 C5.34 7.32 4.68 8.64 4 10 C0.09120039 8.34627709 -2.76211625 5.69823646 -6 3 C-10.6952379 0.13729166 -15.66493262 0.22903651 -21 1 C-24.6717213 2.85009213 -26.68195684 5.04587052 -28 9 C-28.37500088 14.06251189 -28.19766067 17.00292417 -25 21 C-20.2831593 26.15654619 -14.63577963 29.46176155 -8.625 32.875 C0.3183392 37.99350879 9.73301543 43.45647081 13.4453125 53.62109375 C15.35749547 61.82193482 14.46690959 69.79338586 10 77 C4.57660884 83.1437657 -0.41532524 86.49167785 -8.6640625 87.40625 C-20.54444037 87.68744238 -28.79435643 85.14572394 -37.8125 76.9375 C-39.76953125 75.02734375 -39.76953125 75.02734375 -41 73 C-40.69921875 70.25390625 -40.69921875 70.25390625 -40 68 C-39.01 68 -38.02 68 -37 68 C-35.7109375 69.57421875 -35.7109375 69.57421875 -34.375 71.6875 C-30.36835739 77.33686608 -24.78998203 80.64200359 -18 82 C-12.5164091 82.41385592 -8.82256094 81.67920052 -4 79 C-0.53505536 75.83635489 1.26476159 73.20607204 2.0625 68.625 C2.28567218 63.49203987 1.45979803 59.88481632 -2 56 C-5.91040471 53.0621048 -9.99094046 50.53128291 -14.20458984 48.05517578 C-34.60609405 36.0650614 -34.60609405 36.0650614 -38.375 27.43359375 C-40.09250687 20.74605138 -40.26533859 12.919536 -37.5 6.5 C-34.24936979 1.16621944 -29.13258471 -2.59415751 -23.1875 -4.4375 C-15.08685241 -5.98123834 -6.79237344 -4.75022195 0 0 Z "
     fill="#161616"
     transform="translate(142,114)"
     id="path11"
     style="fill:#000000;fill-opacity:1" />
  <path
     d="M0 0 C4.95 0 9.9 0 15 0 C15 29.04 15 58.08 15 88 C31.5 88 48 88 65 88 C65 89.32 65 90.64 65 92 C43.55 92 22.1 92 0 92 C0 61.64 0 31.28 0 0 Z "
     fill="#131313"
     transform="translate(559,109)"
     id="path12"
     style="fill:#000000;fill-opacity:1" />
  <text
     xml:space="preserve"
     style="fill:#000000"
     x="418.39456"
     y="259.9747"
     id="text32"><tspan
       sodipodi:role="line"
       id="tspan32"
       x="418.39456"
       y="259.9747"
       style="font-style:normal;font-variant:normal;font-weight:normal;font-stretch:normal;font-size:61.3333px;font-family:Garamond;-inkscape-font-specification:'Garamond, Normal';font-variant-ligatures:normal;font-variant-caps:normal;font-variant-numeric:normal;font-variant-east-asian:normal">Abbie Wijnmaalen</tspan></text>
</svg>
